<mxfile host="Electron" modified="2023-11-27T08:21:30.165Z" agent="Mozilla/5.0 (X11; Linux x86_64) AppleWebKit/537.36 (KHTML, like Gecko) draw.io/22.1.2 Chrome/114.0.5735.289 Electron/25.9.4 Safari/537.36" etag="NaAvDQTKG2gkncDkOuu0" version="22.1.2" type="device">
  <diagram name="Страница — 1" id="5sFfdiXSSPYg_MGfpaHV">
    <mxGraphModel dx="2514" dy="2307" grid="1" gridSize="10" guides="1" tooltips="1" connect="1" arrows="1" fold="1" page="1" pageScale="1" pageWidth="827" pageHeight="1169" math="0" shadow="0">
      <root>
        <mxCell id="0" />
        <mxCell id="1" parent="0" />
        <mxCell id="ZqFkhhLRCjHZOJYOurKl-1" value="Поведение пользователя" style="shape=umlFrame;whiteSpace=wrap;html=1;pointerEvents=0;width=100;height=30;" parent="1" vertex="1">
          <mxGeometry x="-690" y="-370" width="1640" height="1220" as="geometry" />
        </mxCell>
        <mxCell id="ZqFkhhLRCjHZOJYOurKl-2" value="" style="shape=ellipse;html=1;fillColor=strokeColor;fontSize=18;fontColor=#ffffff;" parent="1" vertex="1">
          <mxGeometry x="-660" y="-60" width="20" height="20" as="geometry" />
        </mxCell>
        <mxCell id="ZqFkhhLRCjHZOJYOurKl-3" value="" style="shape=mxgraph.sysml.actFinal;html=1;verticalLabelPosition=bottom;labelBackgroundColor=#ffffff;verticalAlign=top;" parent="1" vertex="1">
          <mxGeometry x="-660" y="-20" width="20" height="20" as="geometry" />
        </mxCell>
        <mxCell id="ZqFkhhLRCjHZOJYOurKl-5" style="edgeStyle=orthogonalEdgeStyle;rounded=0;orthogonalLoop=1;jettySize=auto;html=1;curved=1;" parent="1" source="ZqFkhhLRCjHZOJYOurKl-4" target="ZqFkhhLRCjHZOJYOurKl-3" edge="1">
          <mxGeometry relative="1" as="geometry" />
        </mxCell>
        <mxCell id="ZqFkhhLRCjHZOJYOurKl-4" value="Ожидание логина и пароля&lt;br&gt;(форма авторизации)" style="strokeWidth=2;html=1;shape=mxgraph.flowchart.terminator;whiteSpace=wrap;" parent="1" vertex="1">
          <mxGeometry x="-480" y="-60" width="100" height="60" as="geometry" />
        </mxCell>
        <mxCell id="ZqFkhhLRCjHZOJYOurKl-6" value="Логин или пароль неверны" style="text;html=1;align=center;verticalAlign=middle;resizable=0;points=[];autosize=1;strokeColor=none;fillColor=none;" parent="1" vertex="1">
          <mxGeometry x="-640" y="-10" width="170" height="30" as="geometry" />
        </mxCell>
        <mxCell id="ZqFkhhLRCjHZOJYOurKl-14" style="edgeStyle=orthogonalEdgeStyle;rounded=0;orthogonalLoop=1;jettySize=auto;html=1;curved=1;exitX=0.5;exitY=1;exitDx=0;exitDy=0;exitPerimeter=0;" parent="1" source="ZqFkhhLRCjHZOJYOurKl-7" target="ZqFkhhLRCjHZOJYOurKl-12" edge="1">
          <mxGeometry relative="1" as="geometry" />
        </mxCell>
        <mxCell id="ZqFkhhLRCjHZOJYOurKl-15" style="edgeStyle=orthogonalEdgeStyle;rounded=0;orthogonalLoop=1;jettySize=auto;html=1;curved=1;" parent="1" source="ZqFkhhLRCjHZOJYOurKl-7" target="ZqFkhhLRCjHZOJYOurKl-11" edge="1">
          <mxGeometry relative="1" as="geometry" />
        </mxCell>
        <mxCell id="ZqFkhhLRCjHZOJYOurKl-19" style="edgeStyle=orthogonalEdgeStyle;rounded=0;orthogonalLoop=1;jettySize=auto;html=1;curved=1;" parent="1" source="ZqFkhhLRCjHZOJYOurKl-7" target="ZqFkhhLRCjHZOJYOurKl-18" edge="1">
          <mxGeometry relative="1" as="geometry" />
        </mxCell>
        <mxCell id="ZqFkhhLRCjHZOJYOurKl-7" value="Ожидание выбора действия&lt;br&gt;(главная страница)" style="strokeWidth=2;html=1;shape=mxgraph.flowchart.terminator;whiteSpace=wrap;" parent="1" vertex="1">
          <mxGeometry x="-250" y="-10" width="120" height="60" as="geometry" />
        </mxCell>
        <mxCell id="ZqFkhhLRCjHZOJYOurKl-8" style="edgeStyle=orthogonalEdgeStyle;rounded=0;orthogonalLoop=1;jettySize=auto;html=1;entryX=0.5;entryY=0;entryDx=0;entryDy=0;entryPerimeter=0;curved=1;" parent="1" source="ZqFkhhLRCjHZOJYOurKl-4" target="ZqFkhhLRCjHZOJYOurKl-7" edge="1">
          <mxGeometry relative="1" as="geometry" />
        </mxCell>
        <mxCell id="ZqFkhhLRCjHZOJYOurKl-9" value="Логин и пароль верные" style="text;html=1;align=center;verticalAlign=middle;resizable=0;points=[];autosize=1;strokeColor=none;fillColor=none;" parent="1" vertex="1">
          <mxGeometry x="-380" y="-60" width="150" height="30" as="geometry" />
        </mxCell>
        <mxCell id="ZqFkhhLRCjHZOJYOurKl-10" style="edgeStyle=orthogonalEdgeStyle;rounded=0;orthogonalLoop=1;jettySize=auto;html=1;entryX=0.5;entryY=0;entryDx=0;entryDy=0;entryPerimeter=0;curved=1;" parent="1" source="ZqFkhhLRCjHZOJYOurKl-2" target="ZqFkhhLRCjHZOJYOurKl-4" edge="1">
          <mxGeometry relative="1" as="geometry">
            <Array as="points">
              <mxPoint x="-650" y="-70" />
              <mxPoint x="-540" y="-70" />
              <mxPoint x="-540" y="-80" />
              <mxPoint x="-430" y="-80" />
            </Array>
          </mxGeometry>
        </mxCell>
        <mxCell id="ZqFkhhLRCjHZOJYOurKl-22" style="edgeStyle=orthogonalEdgeStyle;rounded=0;orthogonalLoop=1;jettySize=auto;html=1;curved=1;" parent="1" source="ZqFkhhLRCjHZOJYOurKl-11" target="ZqFkhhLRCjHZOJYOurKl-21" edge="1">
          <mxGeometry relative="1" as="geometry" />
        </mxCell>
        <mxCell id="ZqFkhhLRCjHZOJYOurKl-11" value="Обработка запроса на выдачу прав&lt;br&gt;(форма выдачи прав)" style="strokeWidth=2;html=1;shape=mxgraph.flowchart.terminator;whiteSpace=wrap;" parent="1" vertex="1">
          <mxGeometry x="-360" y="130" width="120" height="80" as="geometry" />
        </mxCell>
        <mxCell id="ZqFkhhLRCjHZOJYOurKl-23" style="edgeStyle=orthogonalEdgeStyle;rounded=0;orthogonalLoop=1;jettySize=auto;html=1;curved=1;" parent="1" source="ZqFkhhLRCjHZOJYOurKl-12" target="ZqFkhhLRCjHZOJYOurKl-21" edge="1">
          <mxGeometry relative="1" as="geometry" />
        </mxCell>
        <mxCell id="ZqFkhhLRCjHZOJYOurKl-27" style="edgeStyle=orthogonalEdgeStyle;rounded=0;orthogonalLoop=1;jettySize=auto;html=1;entryX=1;entryY=0.5;entryDx=0;entryDy=0;entryPerimeter=0;curved=1;exitX=1;exitY=0.5;exitDx=0;exitDy=0;exitPerimeter=0;" parent="1" source="ZqFkhhLRCjHZOJYOurKl-12" target="ZqFkhhLRCjHZOJYOurKl-7" edge="1">
          <mxGeometry relative="1" as="geometry">
            <Array as="points">
              <mxPoint x="80" y="160" />
              <mxPoint x="80" y="20" />
            </Array>
          </mxGeometry>
        </mxCell>
        <mxCell id="ZqFkhhLRCjHZOJYOurKl-12" value="Обработка запроса на изменение роли&lt;br&gt;(форма на выдачу роли)" style="strokeWidth=2;html=1;shape=mxgraph.flowchart.terminator;whiteSpace=wrap;" parent="1" vertex="1">
          <mxGeometry x="-140" y="130" width="130" height="90" as="geometry" />
        </mxCell>
        <mxCell id="ZqFkhhLRCjHZOJYOurKl-16" value="Выбор действия на &lt;br&gt;изменение роли" style="text;html=1;align=center;verticalAlign=middle;resizable=0;points=[];autosize=1;strokeColor=none;fillColor=none;" parent="1" vertex="1">
          <mxGeometry x="-105" y="60" width="130" height="40" as="geometry" />
        </mxCell>
        <mxCell id="ZqFkhhLRCjHZOJYOurKl-17" value="Выбор действия на &lt;br&gt;изменение прав" style="text;html=1;align=center;verticalAlign=middle;resizable=0;points=[];autosize=1;strokeColor=none;fillColor=none;" parent="1" vertex="1">
          <mxGeometry x="-390" y="60" width="130" height="40" as="geometry" />
        </mxCell>
        <mxCell id="L_kdz4s-2g_78CDOdNyk-4" style="edgeStyle=orthogonalEdgeStyle;rounded=0;orthogonalLoop=1;jettySize=auto;html=1;curved=1;entryX=0;entryY=0.5;entryDx=0;entryDy=0;entryPerimeter=0;" parent="1" source="ZqFkhhLRCjHZOJYOurKl-18" target="L_kdz4s-2g_78CDOdNyk-1" edge="1">
          <mxGeometry relative="1" as="geometry">
            <Array as="points">
              <mxPoint x="250" y="-70" />
              <mxPoint x="250" y="160" />
              <mxPoint x="450" y="160" />
            </Array>
          </mxGeometry>
        </mxCell>
        <mxCell id="ZqFkhhLRCjHZOJYOurKl-18" value="Обработка действия с файлами&lt;br&gt;(главная траница)" style="strokeWidth=2;html=1;shape=mxgraph.flowchart.terminator;whiteSpace=wrap;" parent="1" vertex="1">
          <mxGeometry y="-100" width="120" height="70" as="geometry" />
        </mxCell>
        <mxCell id="ZqFkhhLRCjHZOJYOurKl-20" value="Выбор действия на &lt;br&gt;взаимодействия с файлами" style="text;html=1;align=center;verticalAlign=middle;resizable=0;points=[];autosize=1;strokeColor=none;fillColor=none;" parent="1" vertex="1">
          <mxGeometry x="-155" y="-30" width="180" height="40" as="geometry" />
        </mxCell>
        <mxCell id="ZqFkhhLRCjHZOJYOurKl-21" value="Ожидание обработки запроса&lt;br&gt;(страница с загрузкой)" style="strokeWidth=2;html=1;shape=mxgraph.flowchart.terminator;whiteSpace=wrap;" parent="1" vertex="1">
          <mxGeometry x="-250" y="310" width="110" height="60" as="geometry" />
        </mxCell>
        <mxCell id="ZqFkhhLRCjHZOJYOurKl-24" value="Обработка запроса" style="text;html=1;align=center;verticalAlign=middle;resizable=0;points=[];autosize=1;strokeColor=none;fillColor=none;" parent="1" vertex="1">
          <mxGeometry x="-250" y="225" width="130" height="30" as="geometry" />
        </mxCell>
        <mxCell id="ZqFkhhLRCjHZOJYOurKl-25" style="edgeStyle=orthogonalEdgeStyle;rounded=0;orthogonalLoop=1;jettySize=auto;html=1;entryX=0;entryY=0.5;entryDx=0;entryDy=0;entryPerimeter=0;exitX=0;exitY=0.5;exitDx=0;exitDy=0;exitPerimeter=0;curved=1;" parent="1" source="ZqFkhhLRCjHZOJYOurKl-11" target="ZqFkhhLRCjHZOJYOurKl-7" edge="1">
          <mxGeometry relative="1" as="geometry">
            <Array as="points">
              <mxPoint x="-440" y="160" />
              <mxPoint x="-440" y="20" />
            </Array>
          </mxGeometry>
        </mxCell>
        <mxCell id="ZqFkhhLRCjHZOJYOurKl-26" value="Отмена запроса" style="text;html=1;align=center;verticalAlign=middle;resizable=0;points=[];autosize=1;strokeColor=none;fillColor=none;" parent="1" vertex="1">
          <mxGeometry x="-580" y="75" width="110" height="30" as="geometry" />
        </mxCell>
        <mxCell id="ZqFkhhLRCjHZOJYOurKl-28" value="Отмена запроса" style="text;html=1;align=center;verticalAlign=middle;resizable=0;points=[];autosize=1;strokeColor=none;fillColor=none;" parent="1" vertex="1">
          <mxGeometry x="75" y="80" width="110" height="30" as="geometry" />
        </mxCell>
        <mxCell id="ZqFkhhLRCjHZOJYOurKl-37" style="edgeStyle=orthogonalEdgeStyle;rounded=0;orthogonalLoop=1;jettySize=auto;html=1;curved=1;" parent="1" source="ZqFkhhLRCjHZOJYOurKl-33" target="ZqFkhhLRCjHZOJYOurKl-36" edge="1">
          <mxGeometry relative="1" as="geometry" />
        </mxCell>
        <mxCell id="ZqFkhhLRCjHZOJYOurKl-38" style="edgeStyle=orthogonalEdgeStyle;rounded=0;orthogonalLoop=1;jettySize=auto;html=1;curved=1;" parent="1" source="ZqFkhhLRCjHZOJYOurKl-33" target="ZqFkhhLRCjHZOJYOurKl-7" edge="1">
          <mxGeometry relative="1" as="geometry">
            <mxPoint x="-105" y="600" as="targetPoint" />
            <Array as="points">
              <mxPoint x="400" y="530" />
              <mxPoint x="400" y="20" />
            </Array>
          </mxGeometry>
        </mxCell>
        <mxCell id="ZqFkhhLRCjHZOJYOurKl-33" value="" style="strokeWidth=2;html=1;shape=mxgraph.flowchart.decision;whiteSpace=wrap;" parent="1" vertex="1">
          <mxGeometry x="-210" y="510" width="30" height="40" as="geometry" />
        </mxCell>
        <mxCell id="ZqFkhhLRCjHZOJYOurKl-34" style="edgeStyle=orthogonalEdgeStyle;rounded=0;orthogonalLoop=1;jettySize=auto;html=1;entryX=0.5;entryY=0;entryDx=0;entryDy=0;entryPerimeter=0;" parent="1" source="ZqFkhhLRCjHZOJYOurKl-21" target="ZqFkhhLRCjHZOJYOurKl-33" edge="1">
          <mxGeometry relative="1" as="geometry">
            <mxPoint x="-195" y="450" as="sourcePoint" />
          </mxGeometry>
        </mxCell>
        <mxCell id="ZqFkhhLRCjHZOJYOurKl-36" value="Обновление информации о пользователе&lt;br&gt;(главная страница)" style="strokeWidth=2;html=1;shape=mxgraph.flowchart.terminator;whiteSpace=wrap;" parent="1" vertex="1">
          <mxGeometry x="-350" y="600" width="130" height="80" as="geometry" />
        </mxCell>
        <mxCell id="ZqFkhhLRCjHZOJYOurKl-39" value="Одобрено" style="text;html=1;align=center;verticalAlign=middle;resizable=0;points=[];autosize=1;strokeColor=none;fillColor=none;" parent="1" vertex="1">
          <mxGeometry x="-370" y="515" width="80" height="30" as="geometry" />
        </mxCell>
        <mxCell id="ZqFkhhLRCjHZOJYOurKl-40" value="Не одобрено" style="text;html=1;align=center;verticalAlign=middle;resizable=0;points=[];autosize=1;strokeColor=none;fillColor=none;" parent="1" vertex="1">
          <mxGeometry x="-100" y="485" width="100" height="30" as="geometry" />
        </mxCell>
        <mxCell id="ZqFkhhLRCjHZOJYOurKl-41" style="edgeStyle=orthogonalEdgeStyle;rounded=0;orthogonalLoop=1;jettySize=auto;html=1;entryX=0.5;entryY=1;entryDx=0;entryDy=0;entryPerimeter=0;curved=1;" parent="1" source="ZqFkhhLRCjHZOJYOurKl-36" target="ZqFkhhLRCjHZOJYOurKl-3" edge="1">
          <mxGeometry relative="1" as="geometry" />
        </mxCell>
        <mxCell id="ZqFkhhLRCjHZOJYOurKl-55" style="edgeStyle=orthogonalEdgeStyle;rounded=0;orthogonalLoop=1;jettySize=auto;html=1;curved=1;" parent="1" source="ZqFkhhLRCjHZOJYOurKl-42" target="ZqFkhhLRCjHZOJYOurKl-54" edge="1">
          <mxGeometry relative="1" as="geometry" />
        </mxCell>
        <mxCell id="ZqFkhhLRCjHZOJYOurKl-42" value="Обработка запроса на чтение&lt;br&gt;(страница с содержимым файла)" style="strokeWidth=2;html=1;shape=mxgraph.flowchart.terminator;whiteSpace=wrap;" parent="1" vertex="1">
          <mxGeometry x="250" y="-360" width="150" height="80" as="geometry" />
        </mxCell>
        <mxCell id="ZqFkhhLRCjHZOJYOurKl-57" style="edgeStyle=orthogonalEdgeStyle;rounded=0;orthogonalLoop=1;jettySize=auto;html=1;curved=1;" parent="1" source="ZqFkhhLRCjHZOJYOurKl-44" target="ZqFkhhLRCjHZOJYOurKl-54" edge="1">
          <mxGeometry relative="1" as="geometry" />
        </mxCell>
        <mxCell id="ZqFkhhLRCjHZOJYOurKl-44" value="Обработка запроса на загрузку&lt;br&gt;(главная страница)" style="strokeWidth=2;html=1;shape=mxgraph.flowchart.terminator;whiteSpace=wrap;" parent="1" vertex="1">
          <mxGeometry x="370" y="-210" width="150" height="90" as="geometry" />
        </mxCell>
        <mxCell id="ZqFkhhLRCjHZOJYOurKl-58" style="edgeStyle=orthogonalEdgeStyle;rounded=0;orthogonalLoop=1;jettySize=auto;html=1;curved=1;" parent="1" source="ZqFkhhLRCjHZOJYOurKl-45" target="ZqFkhhLRCjHZOJYOurKl-54" edge="1">
          <mxGeometry relative="1" as="geometry" />
        </mxCell>
        <mxCell id="ZqFkhhLRCjHZOJYOurKl-45" value="Обработка запроса на удаление&lt;br&gt;(главная страница)" style="strokeWidth=2;html=1;shape=mxgraph.flowchart.terminator;whiteSpace=wrap;" parent="1" vertex="1">
          <mxGeometry x="430" y="-50" width="140" height="70" as="geometry" />
        </mxCell>
        <mxCell id="ZqFkhhLRCjHZOJYOurKl-46" style="edgeStyle=orthogonalEdgeStyle;rounded=0;orthogonalLoop=1;jettySize=auto;html=1;entryX=0;entryY=0.5;entryDx=0;entryDy=0;entryPerimeter=0;curved=1;" parent="1" source="ZqFkhhLRCjHZOJYOurKl-18" target="ZqFkhhLRCjHZOJYOurKl-42" edge="1">
          <mxGeometry relative="1" as="geometry" />
        </mxCell>
        <mxCell id="ZqFkhhLRCjHZOJYOurKl-48" style="edgeStyle=orthogonalEdgeStyle;rounded=0;orthogonalLoop=1;jettySize=auto;html=1;entryX=0;entryY=0.5;entryDx=0;entryDy=0;entryPerimeter=0;curved=1;" parent="1" source="ZqFkhhLRCjHZOJYOurKl-18" target="ZqFkhhLRCjHZOJYOurKl-44" edge="1">
          <mxGeometry relative="1" as="geometry" />
        </mxCell>
        <mxCell id="ZqFkhhLRCjHZOJYOurKl-49" style="edgeStyle=orthogonalEdgeStyle;rounded=0;orthogonalLoop=1;jettySize=auto;html=1;entryX=0;entryY=0.5;entryDx=0;entryDy=0;entryPerimeter=0;curved=1;" parent="1" source="ZqFkhhLRCjHZOJYOurKl-18" target="ZqFkhhLRCjHZOJYOurKl-45" edge="1">
          <mxGeometry relative="1" as="geometry" />
        </mxCell>
        <mxCell id="ZqFkhhLRCjHZOJYOurKl-50" value="Запрос на чтение" style="text;html=1;align=center;verticalAlign=middle;resizable=0;points=[];autosize=1;strokeColor=none;fillColor=none;" parent="1" vertex="1">
          <mxGeometry x="40" y="-290" width="120" height="30" as="geometry" />
        </mxCell>
        <mxCell id="ZqFkhhLRCjHZOJYOurKl-52" value="Запрос на загрузку" style="text;html=1;align=center;verticalAlign=middle;resizable=0;points=[];autosize=1;strokeColor=none;fillColor=none;" parent="1" vertex="1">
          <mxGeometry x="240" y="-140" width="130" height="30" as="geometry" />
        </mxCell>
        <mxCell id="ZqFkhhLRCjHZOJYOurKl-53" value="Запрос на удаление" style="text;html=1;align=center;verticalAlign=middle;resizable=0;points=[];autosize=1;strokeColor=none;fillColor=none;" parent="1" vertex="1">
          <mxGeometry x="280" y="-60" width="140" height="30" as="geometry" />
        </mxCell>
        <mxCell id="ZqFkhhLRCjHZOJYOurKl-63" style="edgeStyle=orthogonalEdgeStyle;rounded=0;orthogonalLoop=1;jettySize=auto;html=1;curved=1;" parent="1" source="ZqFkhhLRCjHZOJYOurKl-54" target="ZqFkhhLRCjHZOJYOurKl-3" edge="1">
          <mxGeometry relative="1" as="geometry">
            <Array as="points">
              <mxPoint x="735" y="800" />
              <mxPoint x="-650" y="800" />
            </Array>
          </mxGeometry>
        </mxCell>
        <mxCell id="ZqFkhhLRCjHZOJYOurKl-54" value="Обновление информации&lt;br&gt;(главная страница)" style="strokeWidth=2;html=1;shape=mxgraph.flowchart.terminator;whiteSpace=wrap;" parent="1" vertex="1">
          <mxGeometry x="680" y="-160" width="140" height="70" as="geometry" />
        </mxCell>
        <mxCell id="ZqFkhhLRCjHZOJYOurKl-59" value="Выполенение действия" style="text;html=1;align=center;verticalAlign=middle;resizable=0;points=[];autosize=1;strokeColor=none;fillColor=none;" parent="1" vertex="1">
          <mxGeometry x="535" y="-342" width="150" height="30" as="geometry" />
        </mxCell>
        <mxCell id="ZqFkhhLRCjHZOJYOurKl-61" value="Выполенение действия" style="text;html=1;align=center;verticalAlign=middle;resizable=0;points=[];autosize=1;strokeColor=none;fillColor=none;" parent="1" vertex="1">
          <mxGeometry x="535" y="-210" width="150" height="30" as="geometry" />
        </mxCell>
        <mxCell id="ZqFkhhLRCjHZOJYOurKl-62" value="Выполенение действия" style="text;html=1;align=center;verticalAlign=middle;resizable=0;points=[];autosize=1;strokeColor=none;fillColor=none;" parent="1" vertex="1">
          <mxGeometry x="560" y="-80" width="150" height="30" as="geometry" />
        </mxCell>
        <mxCell id="L_kdz4s-2g_78CDOdNyk-2" style="edgeStyle=orthogonalEdgeStyle;rounded=0;orthogonalLoop=1;jettySize=auto;html=1;curved=1;" parent="1" source="L_kdz4s-2g_78CDOdNyk-1" target="ZqFkhhLRCjHZOJYOurKl-54" edge="1">
          <mxGeometry relative="1" as="geometry" />
        </mxCell>
        <mxCell id="L_kdz4s-2g_78CDOdNyk-1" value="Обработка запроса на изменение информации о файле(Форма изменения инф. о файле)" style="strokeWidth=2;html=1;shape=mxgraph.flowchart.terminator;whiteSpace=wrap;" parent="1" vertex="1">
          <mxGeometry x="450" y="80" width="180" height="80" as="geometry" />
        </mxCell>
        <mxCell id="L_kdz4s-2g_78CDOdNyk-3" value="Выполенение действия" style="text;html=1;align=center;verticalAlign=middle;resizable=0;points=[];autosize=1;strokeColor=none;fillColor=none;" parent="1" vertex="1">
          <mxGeometry x="550" y="40" width="150" height="30" as="geometry" />
        </mxCell>
        <mxCell id="L_kdz4s-2g_78CDOdNyk-5" value="Запрос на изменение ифнормации" style="text;html=1;align=center;verticalAlign=middle;resizable=0;points=[];autosize=1;strokeColor=none;fillColor=none;" parent="1" vertex="1">
          <mxGeometry x="250" y="50" width="220" height="30" as="geometry" />
        </mxCell>
      </root>
    </mxGraphModel>
  </diagram>
</mxfile>
